<?xml version="1.0" encoding="UTF-8" standalone="no"?>
<!-- Created with Inkscape (http://www.inkscape.org/) -->

<svg
   width="173.47404mm"
   height="173.47404mm"
   viewBox="0 0 173.47404 173.47404"
   version="1.1"
   id="svg1"
   inkscape:version="1.3.2 (1:1.3.2+202311252150+091e20ef0f)"
   sodipodi:docname="example_digraph.svg"
   xmlns:inkscape="http://www.inkscape.org/namespaces/inkscape"
   xmlns:sodipodi="http://sodipodi.sourceforge.net/DTD/sodipodi-0.dtd"
   xmlns="http://www.w3.org/2000/svg"
   xmlns:svg="http://www.w3.org/2000/svg">
  <sodipodi:namedview
     id="namedview1"
     pagecolor="#ffffff"
     bordercolor="#666666"
     borderopacity="1.0"
     inkscape:showpageshadow="2"
     inkscape:pageopacity="0.0"
     inkscape:pagecheckerboard="0"
     inkscape:deskcolor="#d1d1d1"
     inkscape:document-units="mm"
     inkscape:zoom="1.2132417"
     inkscape:cx="235.73209"
     inkscape:cy="286.42274"
     inkscape:window-width="1920"
     inkscape:window-height="1163"
     inkscape:window-x="0"
     inkscape:window-y="0"
     inkscape:window-maximized="1"
     inkscape:current-layer="layer1" />
  <defs
     id="defs1">
    <marker
       style="overflow:visible"
       id="RoundedArrow"
       refX="0"
       refY="0"
       orient="auto-start-reverse"
       inkscape:stockid="Rounded arrow"
       markerWidth="1"
       markerHeight="1"
       viewBox="0 0 1 1"
       inkscape:isstock="true"
       inkscape:collect="always"
       preserveAspectRatio="xMidYMid">
      <path
         transform="scale(0.7)"
         d="m -0.21114562,-4.1055728 6.42229122,3.21114561 a 1,1 90 0 1 0,1.78885438 L -0.21114562,4.1055728 A 1.236068,1.236068 31.717474 0 1 -2,3 v -6 a 1.236068,1.236068 148.28253 0 1 1.78885438,-1.1055728 z"
         style="fill:context-stroke;fill-rule:evenodd;stroke:none"
         id="path18" />
    </marker>
  </defs>
  <g
     inkscape:label="Layer 1"
     inkscape:groupmode="layer"
     id="layer1"
     transform="translate(-211.7541,-100.1763)">
    <rect
       style="fill:#ffffff;fill-opacity:1;stroke:none;stroke-width:1;stroke-dasharray:none"
       id="rect12"
       width="173.47404"
       height="173.47404"
       x="211.7541"
       y="100.1763" />
    <g
       id="g19"
       transform="translate(-35.250037,95.997943)">
      <circle
         style="fill:#000000;fill-opacity:1;stroke:#000000;stroke-width:1;-inkscape-stroke:none"
         id="path1-65-8"
         cx="266.25525"
         cy="35.72332"
         r="8.5533524" />
      <circle
         style="fill:#000000;fill-opacity:1;stroke:#000000;stroke-width:1;-inkscape-stroke:none"
         id="path1-5-6-0"
         cx="267.056"
         cy="111.71054"
         r="8.5533524" />
      <circle
         style="fill:#000000;fill-opacity:1;stroke:#000000;stroke-width:1;-inkscape-stroke:none"
         id="path1-2-9-5"
         cx="388.31271"
         cy="87.235901"
         r="8.5533524" />
      <circle
         style="fill:#000000;fill-opacity:1;stroke:#000000;stroke-width:1;-inkscape-stroke:none"
         id="path1-7-3-6"
         cx="350.23294"
         cy="143.44379"
         r="8.5533524" />
      <circle
         style="fill:#000000;fill-opacity:1;stroke:#000000;stroke-width:1;-inkscape-stroke:none"
         id="path1-6-7-6"
         cx="350.90811"
         cy="57.297749"
         r="8.5533524" />
      <g
         id="g3-5-4"
         transform="translate(222.71933,-7.351352)">
        <path
           id="path1-23-4-0"
           d="m 44.997993,20.519736 c 0,-0.902087 -0.433942,-1.170353 -0.733768,-1.170353 -0.418171,0 -0.820554,0.433959 -0.820554,0.802156 0,0.218276 0.08416,0.318223 0.268267,0.502314 0.349782,0.334011 0.568075,0.767953 0.568075,1.370231 0,0.702192 -1.020432,4.53144 -2.977136,4.53144 -0.852113,0 -1.236098,-0.583847 -1.236098,-1.454374 0,-0.936272 0.452356,-2.156582 0.970458,-3.545211 0.115719,-0.284037 0.199878,-0.518101 0.199878,-0.836324 0,-0.752183 -0.536515,-1.370232 -1.370214,-1.370232 -1.572727,0 -2.209182,2.424849 -2.209182,2.574753 0,0.168319 0.168318,0.168319 0.202509,0.168319 0.165688,0 0.184098,-0.03419 0.265627,-0.302452 0.486547,-1.688437 1.20453,-2.072423 1.688446,-2.072423 0.134133,0 0.418171,0 0.418171,0.53389 0,0.418171 -0.165693,0.870527 -0.284038,1.170336 -0.733768,1.940933 -0.952055,2.708886 -0.952055,3.429492 0,1.804174 1.470157,2.072423 2.240736,2.072423 2.808817,0 3.760878,-5.533474 3.760878,-6.403985"
           style="fill:#000000;fill-opacity:1;fill-rule:nonzero;stroke:none;stroke-width:0.168319" />
        <path
           id="path2-7-7-0"
           d="m 49.216478,21.740046 c 0,-0.320866 -0.02367,-0.331385 -0.355051,-0.331385 -0.757434,0.744288 -1.833091,0.754808 -2.319633,0.754808 v 0.426048 c 0.284038,0 1.065137,0 1.717372,-0.331369 v 6.035799 c 0,0.391868 0,0.544407 -1.183499,0.544407 h -0.449713 v 0.426056 c 0.213024,-0.01052 1.667398,-0.04734 2.106608,-0.04734 0.365571,0 1.856757,0.03682 2.117129,0.04734 V 28.838354 H 50.39996 c -1.183482,0 -1.183482,-0.152539 -1.183482,-0.544407 v -6.553901"
           style="fill:#000000;fill-opacity:1;fill-rule:nonzero;stroke:none;stroke-width:0.168319" />
      </g>
      <g
         id="g4-4-4"
         transform="translate(294.93386,16.210285)">
        <path
           id="path3-5-4-6"
           d="m 60.651557,20.519736 c 0,-0.902087 -0.433925,-1.170353 -0.733701,-1.170353 -0.418103,0 -0.820553,0.433959 -0.820553,0.802156 0,0.218276 0.08416,0.318223 0.2683,0.502314 0.349766,0.334011 0.568075,0.767953 0.568075,1.370231 0,0.702192 -1.020516,4.53144 -2.97722,4.53144 -0.852028,0 -1.235963,-0.583847 -1.235963,-1.454374 0,-0.936272 0.452272,-2.156582 0.970357,-3.545211 0.115803,-0.284037 0.199962,-0.518101 0.199962,-0.836324 0,-0.752183 -0.5366,-1.370232 -1.370282,-1.370232 -1.572718,0 -2.209182,2.424849 -2.209182,2.574753 0,0.168319 0.168319,0.168319 0.202505,0.168319 0.165692,0 0.184106,-0.03419 0.26564,-0.302452 0.486542,-1.688437 1.204606,-2.072423 1.688522,-2.072423 0.133982,0 0.418103,0 0.418103,0.53389 0,0.418171 -0.165625,0.870527 -0.284121,1.170336 -0.733701,1.940933 -0.952011,2.708886 -0.952011,3.429492 0,1.804174 1.470264,2.072423 2.240826,2.072423 2.808733,0 3.760743,-5.533474 3.760743,-6.403985"
           style="fill:#000000;fill-opacity:1;fill-rule:nonzero;stroke:none;stroke-width:0.168319" />
        <path
           id="path4-3-2"
           d="m 66.882039,27.110454 h -0.40245 c -0.03417,0.260372 -0.152496,0.959946 -0.307686,1.078294 -0.09459,0.07101 -1.004526,0.07101 -1.170319,0.07101 h -2.177538 c 1.241349,-1.101957 1.65676,-1.433343 2.366896,-1.988272 0.875762,-0.699566 1.691097,-1.433335 1.691097,-2.55634 0,-1.433334 -1.254478,-2.306486 -2.769346,-2.306486 -1.46757,0 -2.46166,1.028325 -2.46166,2.117128 0,0.602278 0.510174,0.662755 0.628502,0.662755 0.284122,0 0.625977,-0.202505 0.625977,-0.628553 0,-0.213041 -0.08147,-0.625943 -0.697008,-0.625943 0.365588,-0.841593 1.170488,-1.101965 1.727959,-1.101965 1.183449,0 1.79899,0.923127 1.79899,1.883064 0,1.028326 -0.733869,1.846254 -1.112586,2.272302 l -2.853506,2.816714 c -0.118328,0.105199 -0.118328,0.12887 -0.118328,0.460247 h 4.876022 l 0.354984,-2.153956"
           style="fill:#000000;fill-opacity:1;fill-rule:nonzero;stroke:none;stroke-width:0.168319" />
      </g>
      <g
         id="g5-0-6"
         transform="translate(334.13654,64.313177)">
        <path
           id="path5-7-7"
           d="m 76.305189,20.519736 c 0,-0.902087 -0.433926,-1.170353 -0.733701,-1.170353 -0.418104,0 -0.820553,0.433959 -0.820553,0.802156 0,0.218276 0.08416,0.318223 0.2683,0.502314 0.349766,0.334011 0.568075,0.767953 0.568075,1.370231 0,0.702192 -1.020516,4.53144 -2.97722,4.53144 -0.852029,0 -1.235963,-0.583847 -1.235963,-1.454374 0,-0.936272 0.452272,-2.156582 0.970356,-3.545211 0.115804,-0.284037 0.199963,-0.518101 0.199963,-0.836324 0,-0.752183 -0.5366,-1.370232 -1.370282,-1.370232 -1.572769,0 -2.209182,2.424849 -2.209182,2.574753 0,0.168319 0.168319,0.168319 0.202487,0.168319 0.165794,0 0.184141,-0.03419 0.265607,-0.302452 0.486609,-1.688437 1.204657,-2.072423 1.688573,-2.072423 0.133981,0 0.418103,0 0.418103,0.53389 0,0.418171 -0.165625,0.870527 -0.284122,1.170336 -0.733701,1.940933 -0.95201,2.708886 -0.95201,3.429492 0,1.804174 1.470263,2.072423 2.240826,2.072423 2.808733,0 3.760743,-5.533474 3.760743,-6.403985"
           style="fill:#000000;fill-opacity:1;fill-rule:nonzero;stroke:none;stroke-width:0.168319" />
        <path
           id="path6-8-5"
           d="m 79.790058,25.311549 c 0.923059,0 1.585729,0.639089 1.585729,1.90673 0,1.467536 -0.852029,1.904113 -1.538432,1.904113 -0.47348,0 -1.514868,-0.12887 -2.011912,-0.828445 0.557471,-0.02367 0.686403,-0.412905 0.686403,-0.662749 0,-0.378717 -0.284122,-0.649609 -0.64971,-0.649609 -0.331251,0 -0.66267,0.199878 -0.66267,0.68642 0,1.112485 1.230745,1.833099 2.661454,1.833099 1.646492,0 2.782643,-1.099331 2.782643,-2.282829 0,-0.92311 -0.757434,-1.846237 -2.059378,-2.119754 1.24135,-0.449731 1.691097,-1.33603 1.691097,-2.059278 0,-0.933646 -1.075556,-1.630586 -2.390629,-1.630586 -1.312381,0 -2.319599,0.636463 -2.319599,1.583255 0,0.402383 0.260389,0.628552 0.615373,0.628552 0.368281,0 0.604937,-0.273518 0.604937,-0.604886 0,-0.341906 -0.236656,-0.591741 -0.604937,-0.615424 0.415578,-0.520727 1.230914,-0.649592 1.670057,-0.649592 0.531213,0 1.278212,0.260355 1.278212,1.288681 0,0.497062 -0.165794,1.041472 -0.473481,1.409669 -0.391846,0.44973 -0.723265,0.473396 -1.314905,0.507581 -0.294557,0.02368 -0.31829,0.02368 -0.378717,0.03683 -0.02373,0 -0.118328,0.02367 -0.118328,0.152531 0,0.165693 0.107724,0.165693 0.307687,0.165693 h 0.639106"
           style="fill:#000000;fill-opacity:1;fill-rule:nonzero;stroke:none;stroke-width:0.168319" />
      </g>
      <g
         id="g6-6-6"
         transform="translate(258.96673,140.56832)">
        <path
           id="path7-8-9"
           d="m 91.95882,20.519736 c 0,-0.902087 -0.433925,-1.170353 -0.7337,-1.170353 -0.418104,0 -0.820554,0.433959 -0.820554,0.802156 0,0.218276 0.08416,0.318223 0.2683,0.502314 0.349766,0.334011 0.568076,0.767953 0.568076,1.370231 0,0.702192 -1.020516,4.53144 -2.97722,4.53144 -0.852029,0 -1.235964,-0.583847 -1.235964,-1.454374 0,-0.936272 0.452272,-2.156582 0.970357,-3.545211 0.115803,-0.284037 0.199963,-0.518101 0.199963,-0.836324 0,-0.752183 -0.5366,-1.370232 -1.370282,-1.370232 -1.57277,0 -2.209182,2.424849 -2.209182,2.574753 0,0.168319 0.168318,0.168319 0.202487,0.168319 0.165794,0 0.184141,-0.03419 0.265607,-0.302452 0.486609,-1.688437 1.204656,-2.072423 1.688572,-2.072423 0.133982,0 0.418104,0 0.418104,0.53389 0,0.418171 -0.165626,0.870527 -0.284122,1.170336 -0.733701,1.940933 -0.95201,2.708886 -0.95201,3.429492 0,1.804174 1.470263,2.072423 2.240826,2.072423 2.808732,0 3.760742,-5.533474 3.760742,-6.403985"
           style="fill:#000000;fill-opacity:1;fill-rule:nonzero;stroke:none;stroke-width:0.168319" />
        <path
           id="path8-8-8"
           d="M 98.473424,27.323478 V 26.89743 h -1.31238 v -5.275745 c 0,-0.249836 0,-0.331369 -0.260389,-0.331369 -0.142061,0 -0.189358,0 -0.307686,0.165693 l -3.918794,5.441421 v 0.426048 h 3.479482 v 0.970469 c 0,0.402388 0,0.544407 -0.957228,0.544407 h -0.320815 v 0.426056 c 0.59164,-0.02367 1.349074,-0.04734 1.775088,-0.04734 0.439312,0 1.196745,0.02367 1.788385,0.04734 v -0.426056 h -0.320815 c -0.957228,0 -0.957228,-0.142019 -0.957228,-0.544407 v -0.970469 z m -2.235608,-4.757627 v 4.331579 h -3.12433 z"
           style="fill:#000000;fill-opacity:1;fill-rule:nonzero;stroke:none;stroke-width:0.168319" />
      </g>
      <g
         id="g7-4-7"
         transform="translate(155.83708,106.35684)">
        <path
           id="path9-3-2"
           d="m 107.61245,20.519736 c 0,-0.902087 -0.43392,-1.170353 -0.7337,-1.170353 -0.4181,0 -0.82055,0.433959 -0.82055,0.802156 0,0.218276 0.0842,0.318223 0.2683,0.502314 0.34976,0.334011 0.56807,0.767953 0.56807,1.370231 0,0.702192 -1.02051,4.53144 -2.97722,4.53144 -0.85203,0 -1.23596,-0.583847 -1.23596,-1.454374 0,-0.936272 0.45227,-2.156582 0.97036,-3.545211 0.1158,-0.284037 0.19996,-0.518101 0.19996,-0.836324 0,-0.752183 -0.5366,-1.370232 -1.37028,-1.370232 -1.57277,0 -2.20918,2.424849 -2.20918,2.574753 0,0.168319 0.16831,0.168319 0.20248,0.168319 0.1658,0 0.18414,-0.03419 0.26561,-0.302452 0.48661,-1.688437 1.20466,-2.072423 1.68857,-2.072423 0.13398,0 0.41811,0 0.41811,0.53389 0,0.418171 -0.16563,0.870527 -0.28413,1.170336 -0.7337,1.940933 -0.95201,2.708886 -0.95201,3.429492 0,1.804174 1.47027,2.072423 2.24083,2.072423 2.80873,0 3.76074,-5.533474 3.76074,-6.403985"
           style="fill:#000000;fill-opacity:1;fill-rule:nonzero;stroke:none;stroke-width:0.168319" />
        <path
           id="path10-14-8"
           d="m 109.70078,22.66053 c 0.60477,0.155173 0.95992,0.155173 1.14928,0.155173 1.56217,0 2.48523,-1.065137 2.48523,-1.24135 0,-0.131507 -0.0842,-0.165692 -0.1419,-0.165692 -0.0237,0 -0.0475,0 -0.0948,0.03419 -0.28395,0.107842 -0.91262,0.344531 -1.78839,0.344531 -0.33142,0 -0.95722,-0.02366 -1.72779,-0.320848 -0.11849,-0.05787 -0.14206,-0.05787 -0.15266,-0.05787 -0.15519,0 -0.15519,0.128864 -0.15519,0.318223 v 3.489985 c 0,0.202504 0,0.344532 0.18936,0.344532 0.10789,0 0.11849,-0.02367 0.23682,-0.165693 0.51017,-0.652235 1.23075,-0.746914 1.64633,-0.746914 0.71013,0 1.02825,0.568075 1.08885,0.662755 0.21292,0.391862 0.28395,0.841593 0.28395,1.528013 0,0.355051 0,1.052 -0.35498,1.572735 -0.29725,0.426057 -0.80473,0.710095 -1.38611,0.710095 -0.76787,0 -1.56216,-0.426057 -1.85672,-1.207161 0.44975,0.03682 0.67328,-0.260367 0.67328,-0.578591 0,-0.510224 -0.43662,-0.604903 -0.59164,-0.604903 -0.0237,0 -0.59181,0 -0.59181,0.639089 0,1.06514 0.97052,2.130282 2.39063,2.130282 1.51487,0 2.84037,-1.123001 2.84037,-2.614198 0,-1.338655 -1.01782,-2.569485 -2.48539,-2.569485 -0.52061,0 -1.13615,0.131491 -1.65676,0.581221 V 22.66053"
           style="fill:#000000;fill-opacity:1;fill-rule:nonzero;stroke:none;stroke-width:0.168319" />
      </g>
      <g
         id="g8-9-2"
         transform="translate(134.83617,-93.064497)">
        <path
           id="path1-50-2-9"
           d="m 174.73341,126.03069 c 0.46115,0 1.64157,-0.0301 2.43855,-0.36591 1.11526,-0.47869 1.19295,-1.41851 1.19295,-1.64157 0,-0.69922 -0.604,-1.35335 -1.70421,-1.35335 -1.76939,0 -4.17535,1.54634 -4.17535,4.33324 0,1.62652 0.94234,2.88462 2.5037,2.88462 2.27814,0 3.61646,-1.68917 3.61646,-1.87964 0,-0.0952 -0.0952,-0.20802 -0.19299,-0.20802 -0.0777,0 -0.11027,0.0326 -0.2055,0.1604 -1.25812,1.5764 -2.99492,1.5764 -3.18789,1.5764 -1.24308,0 -1.38594,-1.33831 -1.38594,-1.84707 0,-0.19298 0.0175,-0.68669 0.25564,-1.6591 z m -0.74935,-0.34837 c 0.62155,-2.4235 2.2631,-2.66159 2.67664,-2.66159 0.74934,0 1.18041,0.46114 1.18041,1.00248 0,1.65911 -2.55131,1.65911 -3.20292,1.65911 h -0.65413"
           style="fill:#000000;fill-opacity:1;fill-rule:nonzero;stroke:none;stroke-width:0.160397" />
        <path
           id="path2-3-0-9"
           d="m 183.06905,124.94801 c 0,-0.30577 -0.0225,-0.31579 -0.33834,-0.31579 -0.72178,0.70926 -1.74682,0.71928 -2.21046,0.71928 v 0.406 c 0.27067,0 1.01501,0 1.63655,-0.31577 v 5.75173 c 0,0.37343 0,0.51879 -1.1278,0.51879 h -0.42855 v 0.406 c 0.203,-0.01 1.58892,-0.0451 2.00746,-0.0451 0.34837,0 1.76937,0.0351 2.01749,0.0451 v -0.406 h -0.42856 c -1.12779,0 -1.12779,-0.14536 -1.12779,-0.51879 v -6.24545"
           style="fill:#000000;fill-opacity:1;fill-rule:nonzero;stroke:none;stroke-width:0.160397" />
      </g>
      <g
         id="g9-6-6"
         transform="translate(186.48569,-64.459272)">
        <path
           id="path3-61-8-0"
           d="m 189.48992,126.03069 c 0.46115,0 1.64167,-0.0301 2.43852,-0.36591 1.11524,-0.47869 1.19303,-1.41851 1.19303,-1.64157 0,-0.69922 -0.60405,-1.35335 -1.70422,-1.35335 -1.76934,0 -4.17537,1.54634 -4.17537,4.33324 0,1.62652 0.94233,2.88462 2.50372,2.88462 2.27812,0 3.61647,-1.68917 3.61647,-1.87964 0,-0.0952 -0.0953,-0.20802 -0.19296,-0.20802 -0.0778,0 -0.11035,0.0326 -0.20563,0.1604 -1.25799,1.5764 -2.99477,1.5764 -3.18789,1.5764 -1.24308,0 -1.38586,-1.33831 -1.38586,-1.84707 0,-0.19298 0.0175,-0.68669 0.2557,-1.6591 z m -0.74937,-0.34837 c 0.62154,-2.4235 2.2632,-2.66159 2.6767,-2.66159 0.74938,0 1.18037,0.46114 1.18037,1.00248 0,1.65911 -2.55128,1.65911 -3.20297,1.65911 h -0.6541"
           style="fill:#000000;fill-opacity:1;fill-rule:nonzero;stroke:none;stroke-width:0.160397" />
        <path
           id="path4-0-9-2"
           d="m 199.58242,130.06567 h -0.3835 c -0.0326,0.24812 -0.14532,0.91477 -0.29321,1.02754 -0.0901,0.0677 -0.95725,0.0677 -1.11524,0.0677 h -2.07506 c 1.18293,-1.05009 1.57879,-1.36588 2.25551,-1.89469 0.83454,-0.66665 1.6115,-1.36588 1.6115,-2.43603 0,-1.36588 -1.19543,-2.19794 -2.63901,-2.19794 -1.3985,0 -2.3458,0.97993 -2.3458,2.01749 0,0.57393 0.48616,0.63156 0.59892,0.63156 0.27075,0 0.59652,-0.19297 0.59652,-0.59897 0,-0.20301 -0.0776,-0.59648 -0.66421,-0.59648 0.34838,-0.80199 1.1154,-1.05011 1.64664,-1.05011 1.12775,0 1.71432,0.87969 1.71432,1.79445 0,0.97993 -0.69933,1.75936 -1.06022,2.16536 l -2.71921,2.68415 c -0.11276,0.10024 -0.11276,0.1228 -0.11276,0.43858 h 4.64654 l 0.33827,-2.05258"
           style="fill:#000000;fill-opacity:1;fill-rule:nonzero;stroke:none;stroke-width:0.160397" />
      </g>
      <g
         id="g10-2-7"
         transform="translate(173.08726,0.836373)">
        <path
           id="path5-6-6-6"
           d="m 204.08605,126.03069 c 0.46114,0 1.64167,-0.0301 2.43852,-0.36591 1.11524,-0.47869 1.19303,-1.41851 1.19303,-1.64157 0,-0.69922 -0.60405,-1.35335 -1.70422,-1.35335 -1.76934,0 -4.17529,1.54634 -4.17529,4.33324 0,1.62652 0.94233,2.88462 2.50364,2.88462 2.27811,0 3.61647,-1.68917 3.61647,-1.87964 0,-0.0952 -0.0953,-0.20802 -0.19296,-0.20802 -0.0778,0 -0.11035,0.0326 -0.20563,0.1604 -1.25799,1.5764 -2.99477,1.5764 -3.18789,1.5764 -1.24308,0 -1.38583,-1.33831 -1.38583,-1.84707 0,-0.19298 0.0175,-0.68669 0.25567,-1.6591 z m -0.74937,-0.34837 c 0.62154,-2.4235 2.2632,-2.66159 2.6767,-2.66159 0.74938,0 1.18036,0.46114 1.18036,1.00248 0,1.65911 -2.55127,1.65911 -3.20296,1.65911 h -0.6541"
           style="fill:#000000;fill-opacity:1;fill-rule:nonzero;stroke:none;stroke-width:0.160397" />
        <path
           id="path6-3-6-1"
           d="m 211.72255,128.35143 c 0.87962,0 1.5111,0.60901 1.5111,1.81699 0,1.39847 -0.81192,1.8145 -1.46602,1.8145 -0.4512,0 -1.44358,-0.12281 -1.91723,-0.78946 0.53124,-0.0225 0.6541,-0.39347 0.6541,-0.63156 0,-0.36089 -0.27075,-0.61903 -0.61913,-0.61903 -0.31566,0 -0.63149,0.19047 -0.63149,0.65411 0,1.06013 1.17283,1.74683 2.5362,1.74683 1.56901,0 2.65169,-1.04759 2.65169,-2.17539 0,-0.87967 -0.72179,-1.75935 -1.96246,-2.01999 1.18293,-0.42857 1.61151,-1.27315 1.61151,-1.96236 0,-0.88971 -1.02494,-1.55385 -2.27812,-1.55385 -1.25062,0 -2.21043,0.60651 -2.21043,1.50874 0,0.38345 0.24813,0.59897 0.58641,0.59897 0.35095,0 0.57646,-0.26064 0.57646,-0.57642 0,-0.32581 -0.22551,-0.56389 -0.57646,-0.58646 0.39602,-0.49622 1.17298,-0.61902 1.59146,-0.61902 0.50621,0 1.21805,0.24811 1.21805,1.22804 0,0.47366 -0.15799,0.99245 -0.45119,1.34332 -0.37341,0.42857 -0.68923,0.45112 -1.25303,0.48369 -0.28069,0.0226 -0.30331,0.0226 -0.36089,0.0351 -0.0226,0 -0.11276,0.0225 -0.11276,0.14535 0,0.1579 0.10266,0.1579 0.29321,0.1579 h 0.60902"
           style="fill:#000000;fill-opacity:1;fill-rule:nonzero;stroke:none;stroke-width:0.160397" />
      </g>
      <g
         id="g11-4-3"
         transform="translate(76.50675,-27.387891)">
        <path
           id="path7-2-9-2"
           d="m 218.68218,126.03069 c 0.46114,0 1.64166,-0.0301 2.43852,-0.36591 1.11524,-0.47869 1.19303,-1.41851 1.19303,-1.64157 0,-0.69922 -0.60406,-1.35335 -1.70422,-1.35335 -1.76934,0 -4.17529,1.54634 -4.17529,4.33324 0,1.62652 0.94233,2.88462 2.50363,2.88462 2.27812,0 3.61648,-1.68917 3.61648,-1.87964 0,-0.0952 -0.0953,-0.20802 -0.19296,-0.20802 -0.0778,0 -0.11036,0.0326 -0.20563,0.1604 -1.25799,1.5764 -2.99477,1.5764 -3.18789,1.5764 -1.24308,0 -1.38583,-1.33831 -1.38583,-1.84707 0,-0.19298 0.0175,-0.68669 0.25567,-1.6591 z m -0.74937,-0.34837 c 0.62153,-2.4235 2.2632,-2.66159 2.6767,-2.66159 0.74938,0 1.18036,0.46114 1.18036,1.00248 0,1.65911 -2.55127,1.65911 -3.20296,1.65911 h -0.6541"
           style="fill:#000000;fill-opacity:1;fill-rule:nonzero;stroke:none;stroke-width:0.160397" />
        <path
           id="path8-0-5-1"
           d="m 229.20583,130.26867 v -0.406 h -1.25062 v -5.02745 c 0,-0.23808 0,-0.31578 -0.24813,-0.31578 -0.13538,0 -0.18045,0 -0.29321,0.1579 l -3.73436,5.18533 v 0.406 h 3.31573 v 0.92479 c 0,0.38345 0,0.51879 -0.91218,0.51879 h -0.30572 v 0.406 c 0.5638,-0.0225 1.28559,-0.0451 1.69155,-0.0451 0.41864,0 1.14042,0.0226 1.70422,0.0451 v -0.406 h -0.30572 c -0.91218,0 -0.91218,-0.13534 -0.91218,-0.51879 v -0.92479 z m -2.13039,-4.53372 v 4.12772 h -2.97729 z"
           style="fill:#000000;fill-opacity:1;fill-rule:nonzero;stroke:none;stroke-width:0.160397" />
      </g>
      <g
         id="g12-0-5"
         transform="translate(19.67189,-52.000752)">
        <path
           id="path9-6-4-9"
           d="m 233.27831,126.03069 c 0.46114,0 1.64166,-0.0301 2.43852,-0.36591 1.11524,-0.47869 1.19303,-1.41851 1.19303,-1.64157 0,-0.69922 -0.60406,-1.35335 -1.70422,-1.35335 -1.76934,0 -4.17529,1.54634 -4.17529,4.33324 0,1.62652 0.94233,2.88462 2.50363,2.88462 2.27812,0 3.61647,-1.68917 3.61647,-1.87964 0,-0.0952 -0.0953,-0.20802 -0.19295,-0.20802 -0.0778,0 -0.11036,0.0326 -0.20563,0.1604 -1.258,1.5764 -2.99477,1.5764 -3.18789,1.5764 -1.24308,0 -1.38583,-1.33831 -1.38583,-1.84707 0,-0.19298 0.0175,-0.68669 0.25567,-1.6591 z m -0.74937,-0.34837 c 0.62153,-2.4235 2.2632,-2.66159 2.6767,-2.66159 0.74938,0 1.18036,0.46114 1.18036,1.00248 0,1.65911 -2.55127,1.65911 -3.20297,1.65911 h -0.65409"
           style="fill:#000000;fill-opacity:1;fill-rule:nonzero;stroke:none;stroke-width:0.160397" />
        <path
           id="path10-1-8-9"
           d="m 239.584,125.82517 c 0.5763,0.14787 0.91474,0.14787 1.09519,0.14787 1.48864,0 2.36826,-1.01501 2.36826,-1.18293 0,-0.12531 -0.0802,-0.15789 -0.13521,-0.15789 -0.0226,0 -0.0452,0 -0.0903,0.0326 -0.27059,0.10276 -0.86967,0.32831 -1.70422,0.32831 -0.31582,0 -0.91217,-0.0225 -1.64647,-0.30575 -0.11292,-0.0551 -0.13538,-0.0551 -0.14548,-0.0551 -0.14789,0 -0.14789,0.1228 -0.14789,0.30325 v 3.32573 c 0,0.19298 0,0.32832 0.18045,0.32832 0.10281,0 0.11292,-0.0225 0.22568,-0.1579 0.48616,-0.62153 1.17282,-0.71176 1.56884,-0.71176 0.67672,0 0.97987,0.54134 1.03761,0.63157 0.2029,0.37342 0.27059,0.80198 0.27059,1.4561 0,0.33834 0,1.00248 -0.33828,1.49871 -0.28326,0.40601 -0.76686,0.67668 -1.32087,0.67668 -0.73173,0 -1.48864,-0.40601 -1.76934,-1.15035 0.42858,0.0351 0.64159,-0.24811 0.64159,-0.55136 0,-0.48621 -0.41607,-0.57643 -0.56379,-0.57643 -0.0226,0 -0.56396,0 -0.56396,0.60901 0,1.01501 0.92485,2.03002 2.27812,2.03002 1.44357,0 2.7067,-1.07015 2.7067,-2.49116 0,-1.27566 -0.96992,-2.44856 -2.36842,-2.44856 -0.49611,0 -1.08268,0.1253 -1.57879,0.55387 v -2.13279"
           style="fill:#000000;fill-opacity:1;fill-rule:nonzero;stroke:none;stroke-width:0.160397" />
      </g>
      <path
         style="font-variation-settings:normal;display:inline;opacity:1;vector-effect:none;fill:none;fill-opacity:1;fill-rule:evenodd;stroke:#000000;stroke-width:1;stroke-linecap:butt;stroke-linejoin:miter;stroke-miterlimit:0;stroke-dasharray:none;stroke-dashoffset:0;stroke-opacity:1;-inkscape-stroke:none;marker-end:url(#RoundedArrow);stop-color:#000000;stop-opacity:1"
         d="M 357.57491,62.656118 377.4148,78.602227"
         id="path13-1"
         inkscape:connector-type="polyline"
         inkscape:connector-curvature="0"
         inkscape:connection-start="#path1-6-7-6" />
      <path
         style="display:inline;fill:none;fill-rule:evenodd;stroke:#000000;stroke-width:1;stroke-linecap:butt;stroke-linejoin:miter;stroke-miterlimit:0;stroke-dasharray:none;stroke-opacity:1;marker-end:url(#RoundedArrow)"
         d="m 274.53789,37.857576 62.77337,16.175336"
         id="path14-4"
         inkscape:connector-type="polyline"
         inkscape:connector-curvature="0"
         inkscape:connection-start="#path1-65-8" />
      <path
         style="font-variation-settings:normal;display:inline;opacity:1;vector-effect:none;fill:none;fill-opacity:1;fill-rule:evenodd;stroke:#000000;stroke-width:1;stroke-linecap:butt;stroke-linejoin:miter;stroke-miterlimit:0;stroke-dasharray:none;stroke-dashoffset:0;stroke-opacity:1;-inkscape-stroke:none;marker-end:url(#RoundedArrow);stop-color:#000000;stop-opacity:1"
         d="M 383.51365,94.315879 357.91303,132.08404"
         id="path15-9"
         inkscape:connector-type="polyline"
         inkscape:connector-curvature="0"
         inkscape:connection-start="#path1-2-9-5" />
      <path
         style="font-variation-settings:normal;display:inline;opacity:1;vector-effect:none;fill:none;fill-opacity:1;fill-rule:evenodd;stroke:#000000;stroke-width:1;stroke-linecap:butt;stroke-linejoin:miter;stroke-miterlimit:0;stroke-dasharray:none;stroke-dashoffset:0;stroke-opacity:1;-inkscape-stroke:none;marker-end:url(#RoundedArrow);stop-color:#000000;stop-opacity:1"
         d="M 344.97682,136.69603 274.84834,46.665723"
         id="path16-1"
         inkscape:connector-type="polyline"
         inkscape:connector-curvature="0"
         inkscape:connection-start="#path1-7-3-6" />
      <path
         style="font-variation-settings:normal;display:inline;opacity:1;vector-effect:none;fill:none;fill-opacity:1;fill-rule:evenodd;stroke:#000000;stroke-width:1;stroke-linecap:butt;stroke-linejoin:miter;stroke-miterlimit:0;stroke-dasharray:none;stroke-dashoffset:0;stroke-opacity:1;-inkscape-stroke:none;marker-end:url(#RoundedArrow);stop-color:#000000;stop-opacity:1"
         d="m 266.36986,102.4848 0.71667,-53.481259"
         id="path17-0"
         inkscape:connector-type="polyline"
         inkscape:connector-curvature="0" />
    </g>
  </g>
</svg>
