<?xml version="1.0" encoding="UTF-8" standalone="no"?>
<!-- Uploaded to: SVG Repo, www.svgrepo.com, Generator: SVG Repo Mixer Tools -->

<svg
   height="438.51767"
   width="422.07333"
   version="1.1"
   id="Capa_1"
   viewBox="0 0 179.18174 186.16281"
   xml:space="preserve"
   sodipodi:docname="overlapping_concepts.svg"
   inkscape:version="1.3.2 (1:1.3.2+202311252150+091e20ef0f)"
   xmlns:inkscape="http://www.inkscape.org/namespaces/inkscape"
   xmlns:sodipodi="http://sodipodi.sourceforge.net/DTD/sodipodi-0.dtd"
   xmlns="http://www.w3.org/2000/svg"
   xmlns:svg="http://www.w3.org/2000/svg"><defs
   id="defs9">
		
		
		
		
		
		
		
		
	</defs><sodipodi:namedview
   id="namedview9"
   pagecolor="#ffffff"
   bordercolor="#666666"
   borderopacity="1.0"
   inkscape:showpageshadow="2"
   inkscape:pageopacity="0.0"
   inkscape:pagecheckerboard="0"
   inkscape:deskcolor="#d1d1d1"
   inkscape:zoom="2.8803664"
   inkscape:cx="172.5475"
   inkscape:cy="127.93511"
   inkscape:window-width="1920"
   inkscape:window-height="1163"
   inkscape:window-x="0"
   inkscape:window-y="0"
   inkscape:window-maximized="1"
   inkscape:current-layer="g9" />
<g
   id="g9"
   transform="translate(-50.203991,68.489028)">
	<circle
   style="fill:#c8c8c8;fill-opacity:1;stroke:#000000;stroke-width:0.397392;stroke-dasharray:none;stroke-dashoffset:0"
   id="path11"
   cx="139.79486"
   cy="28.082909"
   r="89.392174" /><g
   id="g10"
   transform="matrix(0.46598446,0,0,0.46598446,59.966406,-58.946394)"><path
     style="fill:#010002"
     d="m 108.4,122.822 c 23.313,0 44.716,8.318 61.411,22.131 16.695,-13.819 38.098,-22.131 61.411,-22.131 7.411,0 14.601,0.919 21.534,2.512 0.095,-1.665 0.251,-3.312 0.251,-4.994 0,-46.613 -37.919,-84.533 -84.533,-84.533 -46.614,0 -84.532,37.92 -84.532,84.533 0,1.915 0.161,3.789 0.286,5.674 7.739,-2.011 15.813,-3.192 24.172,-3.192 z m 60.069,-75.081 c 36.977,0 67.587,27.788 72.038,63.577 -3.121,-0.28 -6.223,-0.424 -9.296,-0.424 -21.94,0 -43.409,6.737 -61.411,19.124 -17.996,-12.387 -39.465,-19.124 -61.411,-19.124 -3.962,0 -7.966,0.239 -11.999,0.71 4.337,-35.932 35.006,-63.863 72.079,-63.863 z"
     id="path1" /><path
     style="fill:#010002"
     d="m 191.059,201.71 c -3.276,-15.424 -10.806,-29.262 -21.254,-40.336 -10.591,11.23 -18.211,25.294 -21.415,40.98 6.45,1.581 13.151,2.512 20.079,2.512 7.834,0 15.388,-1.151 22.59,-3.156 z m -21.26,-20.985 c 2.375,3.753 4.398,7.703 6.044,11.808 -2.47,0.269 -4.929,0.4 -7.375,0.4 -1.587,0 -3.186,-0.06 -4.809,-0.173 1.665,-4.183 3.718,-8.211 6.14,-12.035 z"
     id="path2" /><path
     style="fill:#010002"
     d="m 85.81,137.912 c 5.889,27.728 25.419,50.432 51.202,60.814 3.789,-17.364 12.286,-32.949 24.052,-45.45 -14.464,-11.564 -32.752,-18.527 -52.67,-18.527 -7.828,0.007 -15.382,1.158 -22.584,3.163 z m 43.832,43.69 c -12.972,-8.204 -22.996,-20.275 -28.641,-34.506 2.482,-0.268 4.947,-0.4 7.393,-0.4 12.471,0 24.416,3.121 35.115,9.105 -5.782,7.96 -10.448,16.636 -13.867,25.801 z"
     id="path3" /><path
     style="fill:#010002"
     d="m 262.68,140.896 c -6.85,31.41 -29.035,57.115 -58.302,68.905 0.304,3.127 0.483,6.289 0.483,9.493 0,25.538 -10.048,48.731 -26.308,66.005 14.464,11.564 32.752,18.521 52.664,18.521 46.613,0 84.533,-37.914 84.533,-84.527 -10e-4,-35.49 -22.007,-65.885 -53.07,-78.397 z m -31.464,150.985 c -12.465,0 -24.41,-3.115 -35.109,-9.099 13.419,-18.438 20.687,-40.527 20.687,-63.493 0,-0.656 -0.006,-1.325 -0.018,-1.993 24.751,-12.345 43.755,-33.57 53.296,-59.281 20.842,13.157 33.743,36.022 33.743,61.274 0,40.025 -32.567,72.592 -72.599,72.592 z"
     id="path4" /><path
     style="fill:#010002"
     d="m 276.863,121.104 c 0.006,-0.257 0.006,-0.513 0.006,-0.764 0,-59.77 -48.624,-108.4 -108.4,-108.4 -59.77,0 -108.4,48.63 -108.4,108.4 0,0.656 0.006,1.319 0.018,1.987 C 23.319,140.603 0,177.783 0,219.288 c 0,59.77 48.624,108.394 108.4,108.394 21.946,0 43.415,-6.737 61.411,-19.124 17.996,12.387 39.465,19.124 61.411,19.124 59.776,0 108.4,-48.624 108.4,-108.394 -0.006,-42.114 -24.888,-80.517 -62.759,-98.184 z m -45.647,194.645 c -23.313,0 -44.716,-8.318 -61.411,-22.131 -16.695,13.813 -38.098,22.131 -61.411,22.131 -53.189,0 -96.46,-43.272 -96.46,-96.46 0,-40.491 25.115,-75.183 60.552,-89.461 -0.304,-3.127 -0.483,-6.289 -0.483,-9.493 0,-53.195 43.272,-96.466 96.466,-96.466 53.194,0 96.466,43.272 96.466,96.466 0,2.876 -0.185,5.716 -0.43,8.527 36.81,13.598 63.177,48.946 63.177,90.422 10e-4,53.193 -43.277,96.465 -96.466,96.465 z"
     id="path5" /><path
     style="fill:#010002"
     d="m 192.64,213.614 c -7.739,2.005 -15.812,3.186 -24.172,3.186 -7.411,0 -14.595,-0.919 -21.528,-2.506 -0.095,1.665 -0.251,3.312 -0.251,4.994 0,22.418 8.831,42.765 23.122,57.908 14.291,-15.144 23.122,-35.491 23.122,-57.908 -0.006,-1.915 -0.167,-3.789 -0.293,-5.674 z m -22.835,44.226 c -5.669,-8.962 -9.296,-19.022 -10.621,-29.53 3.121,0.286 6.223,0.424 9.284,0.424 3.95,0 7.96,-0.239 11.993,-0.71 -1.294,10.615 -4.928,20.771 -10.656,29.816 z"
     id="path6" /><path
     style="fill:#010002"
     d="m 135.185,210.756 c -30.228,-11.164 -53.35,-36.989 -60.665,-68.864 -29.781,13.091 -50.653,42.836 -50.653,77.396 0,46.613 37.919,84.527 84.533,84.527 19.911,0 38.206,-6.963 52.664,-18.521 -16.26,-17.274 -26.308,-40.461 -26.308,-66.006 -0.006,-2.882 0.179,-5.716 0.429,-8.532 z m 8.318,72.026 c -10.699,5.985 -22.638,9.099 -35.109,9.099 -40.026,0 -72.593,-32.567 -72.593,-72.593 0,-24.184 12.077,-46.476 31.636,-59.866 10.06,26.063 29.81,47.234 55.384,59.108 0,0.251 0,0.507 0,0.758 -0.005,22.961 7.263,45.056 20.682,63.494 z"
     id="path7" /><path
     style="fill:#010002"
     d="m 251.295,137.268 c -6.45,-1.581 -13.151,-2.512 -20.079,-2.512 -19.911,0 -38.206,6.963 -52.664,18.527 11.54,12.256 19.905,27.489 23.796,44.447 24.787,-10.895 43.403,-33.313 48.947,-60.462 z m -20.079,9.422 c 1.593,0 3.204,0.06 4.833,0.179 -5.322,13.491 -14.619,25.121 -26.636,33.343 -3.359,-8.652 -7.834,-16.868 -13.312,-24.41 10.699,-5.992 22.644,-9.112 35.115,-9.112 z"
     id="path8" /></g>
<text
   xml:space="preserve"
   style="font-size:6.22642px;line-height:1.25;font-family:Arial;-inkscape-font-specification:Arial;stroke-width:0.424527"
   x="121.39539"
   y="-17.501215"
   id="text9"><tspan
     sodipodi:role="line"
     id="tspan9"
     style="stroke-width:0.424527"
     x="121.39539"
     y="-17.501215">Embodiment</tspan></text><text
   xml:space="preserve"
   style="font-size:6.22642px;line-height:1.25;font-family:Arial;-inkscape-font-specification:Arial;stroke-width:0.424527"
   x="122.14472"
   y="-63.956024"
   id="text9-35"><tspan
     sodipodi:role="line"
     id="tspan9-62"
     style="stroke-width:0.424527"
     x="122.14472"
     y="-63.956024">Physical self</tspan></text><text
   xml:space="preserve"
   style="font-size:6.22642px;line-height:1.25;font-family:Arial;-inkscape-font-specification:Arial;stroke-width:0.424527"
   x="99.553749"
   y="48.357082"
   id="text9-3"><tspan
     sodipodi:role="line"
     id="tspan9-6"
     style="text-align:center;text-anchor:middle;stroke-width:0.424527"
     x="99.553749"
     y="48.357082">Body</tspan><tspan
     sodipodi:role="line"
     style="text-align:center;text-anchor:middle;stroke-width:0.424527"
     x="99.553749"
     y="56.140106"
     id="tspan10">morphology</tspan></text><text
   xml:space="preserve"
   style="font-size:6.22642px;line-height:1.25;font-family:Arial;-inkscape-font-specification:Arial;stroke-width:0.424527"
   x="177.45242"
   y="48.975773"
   id="text9-7"><tspan
     sodipodi:role="line"
     id="tspan9-5"
     style="text-align:center;text-anchor:middle;stroke-width:0.424527"
     x="177.45242"
     y="48.975773">Body</tspan><tspan
     sodipodi:role="line"
     style="text-align:center;text-anchor:middle;stroke-width:0.424527"
     x="177.45242"
     y="56.758797"
     id="tspan11">schema</tspan></text></g>
</svg>
